<?xml version="1.0" encoding="iso-8859-1"?>
<!-- Generator: Adobe Illustrator 21.0.0, SVG Export Plug-In . SVG Version: 6.00 Build 0)  -->
<svg version="1.1" id="Capa_1" xmlns="http://www.w3.org/2000/svg" xmlns:xlink="http://www.w3.org/1999/xlink" x="0px" y="0px"
	 viewBox="0 0 1080 1080" style="enable-background:new 0 0 1080 1080;" xml:space="preserve">
<g>
	<g id="File-XLSX">
		
			<linearGradient id="SVGID_1_" gradientUnits="userSpaceOnUse" x1="234.0257" y1="1108.006" x2="234.0257" y2="-56" gradientTransform="matrix(1 0 0 -1 0 1078)">
			<stop  offset="0" style="stop-color:#FFF33B"/>
			<stop  offset="0.014" style="stop-color:#FEE72E"/>
			<stop  offset="0.042" style="stop-color:#FED51B"/>
			<stop  offset="0.07" style="stop-color:#FDCA10"/>
			<stop  offset="0.1" style="stop-color:#FDC70C"/>
			<stop  offset="0.4" style="stop-color:#F3903F"/>
			<stop  offset="0.8" style="stop-color:#ED683C"/>
			<stop  offset="1" style="stop-color:#E93E3A"/>
		</linearGradient>
		<path style="fill:url(#SVGID_1_);" d="M153.954,916.2c8.892,4.446,19.704,0.841,24.149-8.051c0.002-0.004,0.004-0.009,0.007-0.013
			L234,796.248l55.89,111.798c4.444,8.897,15.259,12.508,24.156,8.064c8.897-4.444,12.508-15.259,8.064-24.156l0,0L254.124,756
			L322.2,620.046c4.444-8.897,0.833-19.712-8.064-24.156c-8.897-4.444-19.712-0.833-24.156,8.064l0,0L234,715.752l-55.8-111.798
			c-4.444-8.897-15.259-12.508-24.156-8.064c-8.897,4.444-12.508,15.259-8.064,24.156l0,0L213.876,756L145.89,891.954
			c-4.485,8.872-0.929,19.7,7.942,24.185C153.873,916.16,153.913,916.18,153.954,916.2z"/>
		
			<linearGradient id="SVGID_2_" gradientUnits="userSpaceOnUse" x1="846.0257" y1="1108.006" x2="846.0257" y2="-56" gradientTransform="matrix(1 0 0 -1 0 1078)">
			<stop  offset="0" style="stop-color:#FFF33B"/>
			<stop  offset="0.014" style="stop-color:#FEE72E"/>
			<stop  offset="0.042" style="stop-color:#FED51B"/>
			<stop  offset="0.07" style="stop-color:#FDCA10"/>
			<stop  offset="0.1" style="stop-color:#FDC70C"/>
			<stop  offset="0.4" style="stop-color:#F3903F"/>
			<stop  offset="0.8" style="stop-color:#ED683C"/>
			<stop  offset="1" style="stop-color:#E93E3A"/>
		</linearGradient>
		<path style="fill:url(#SVGID_2_);" d="M765.954,916.2c8.892,4.446,19.704,0.841,24.149-8.051c0.002-0.005,0.004-0.009,0.007-0.013
			L846,796.248l55.8,111.798c4.444,8.897,15.259,12.508,24.156,8.064c8.897-4.444,12.508-15.259,8.064-24.156L866.124,756
			L934.2,620.046c4.444-8.897,0.833-19.712-8.064-24.156c-8.897-4.444-19.712-0.833-24.156,8.064l0,0L846,715.752l-55.8-111.798
			c-4.444-8.897-15.259-12.508-24.156-8.064c-8.897,4.444-12.508,15.259-8.064,24.156L825.876,756L757.89,891.954
			c-4.485,8.872-0.929,19.7,7.942,24.185C765.873,916.16,765.913,916.18,765.954,916.2z"/>
		
			<linearGradient id="SVGID_3_" gradientUnits="userSpaceOnUse" x1="432" y1="1108.006" x2="432" y2="-56" gradientTransform="matrix(1 0 0 -1 0 1078)">
			<stop  offset="0" style="stop-color:#FFF33B"/>
			<stop  offset="0.014" style="stop-color:#FEE72E"/>
			<stop  offset="0.042" style="stop-color:#FED51B"/>
			<stop  offset="0.07" style="stop-color:#FDCA10"/>
			<stop  offset="0.1" style="stop-color:#FDC70C"/>
			<stop  offset="0.4" style="stop-color:#F3903F"/>
			<stop  offset="0.8" style="stop-color:#ED683C"/>
			<stop  offset="1" style="stop-color:#E93E3A"/>
		</linearGradient>
		<path style="fill:url(#SVGID_3_);" d="M360,918h144c9.941,0,18-8.059,18-18s-8.059-18-18-18H378V612c0-9.941-8.059-18-18-18
			s-18,8.059-18,18v288C342,909.941,350.059,918,360,918z"/>
		
			<linearGradient id="SVGID_4_" gradientUnits="userSpaceOnUse" x1="648" y1="1108.006" x2="648" y2="-56" gradientTransform="matrix(1 0 0 -1 0 1078)">
			<stop  offset="0" style="stop-color:#FFF33B"/>
			<stop  offset="0.014" style="stop-color:#FEE72E"/>
			<stop  offset="0.042" style="stop-color:#FED51B"/>
			<stop  offset="0.07" style="stop-color:#FDCA10"/>
			<stop  offset="0.1" style="stop-color:#FDC70C"/>
			<stop  offset="0.4" style="stop-color:#F3903F"/>
			<stop  offset="0.8" style="stop-color:#ED683C"/>
			<stop  offset="1" style="stop-color:#E93E3A"/>
		</linearGradient>
		<path style="fill:url(#SVGID_4_);" d="M684,882H576c-9.941,0-18,8.059-18,18s8.059,18,18,18h108c29.823,0,54-24.177,54-54v-72
			c0-29.823-24.177-54-54-54h-72c-9.941,0-18-8.059-18-18v-72c0-9.941,8.059-18,18-18h108c9.941,0,18-8.059,18-18s-8.059-18-18-18
			H612c-29.823,0-54,24.177-54,54v72c0,29.823,24.177,54,54,54h72c9.941,0,18,8.059,18,18v72C702,873.941,693.941,882,684,882z"/>
		
			<linearGradient id="SVGID_5_" gradientUnits="userSpaceOnUse" x1="540" y1="1108.006" x2="540" y2="-56" gradientTransform="matrix(1 0 0 -1 0 1078)">
			<stop  offset="0" style="stop-color:#FFF33B"/>
			<stop  offset="0.014" style="stop-color:#FEE72E"/>
			<stop  offset="0.042" style="stop-color:#FED51B"/>
			<stop  offset="0.07" style="stop-color:#FDCA10"/>
			<stop  offset="0.1" style="stop-color:#FDC70C"/>
			<stop  offset="0.4" style="stop-color:#F3903F"/>
			<stop  offset="0.8" style="stop-color:#ED683C"/>
			<stop  offset="1" style="stop-color:#E93E3A"/>
		</linearGradient>
		<path style="fill:url(#SVGID_5_);" d="M1007.838,162c0.06-4.754-1.78-9.335-5.112-12.726l-144-144
			C855.333,1.947,850.752,0.113,846,0.18V0H162c-49.681,0.06-89.94,40.319-90,90v900c0.06,49.681,40.319,89.94,90,90h756
			c49.681-0.06,89.94-40.319,90-90L1007.838,162z M864,61.452L946.548,144H864V61.452z M162,36h666v126c0,9.941,8.059,18,18,18h126
			v360H108V90C108,60.177,132.177,36,162,36z M972,936H108V576h864V936z M918,1044H162c-29.823,0-54-24.177-54-54v-18h864v18
			C972,1019.823,947.823,1044,918,1044z"/>
	</g>
</g>
<g>
</g>
<g>
</g>
<g>
</g>
<g>
</g>
<g>
</g>
<g>
</g>
<g>
</g>
<g>
</g>
<g>
</g>
<g>
</g>
<g>
</g>
<g>
</g>
<g>
</g>
<g>
</g>
<g>
</g>
</svg>
